<svg xmlns="http://www.w3.org/2000/svg" viewBox="0 0 54 28" fill="none">
  <path fill="#ECE7DC" fill-opacity="0.88" d="M13.1 7c.72-.92 1.22-2.15 1.08-3.35-1.08.05-2.4.72-3.18 1.62-.7.8-1.32 2.08-1.15 3.3 1.22.1 2.45-.55 3.25-1.57zm1.18 1.55c-1.78-.1-3.28 1.02-4.12 1.02-.85 0-2.15-.98-3.55-.95-1.82.03-3.5 1.08-4.43 2.72-1.9 3.28-.48 8.15 1.35 10.82.9 1.3 1.98 2.75 3.4 2.7 1.35-.05 1.88-.88 3.52-.88 1.62 0 2.08.88 3.52.85 1.48-.02 2.4-1.3 3.3-2.6 1.02-1.5 1.45-2.95 1.47-3.02-.03 0-2.72-1.05-2.7-4.08.02-2.55 2.08-3.78 2.18-3.85-1.2-1.78-3.05-1.98-3.76-2.03z"/>
  <text x="28.5" y="18.5" font-family="-apple-system, BlinkMacSystemFont, Helvetica, Arial, sans-serif" font-size="11.5" font-weight="500" fill="#ECE7DC" fill-opacity="0.88">Pay</text>
</svg>
